<?xml version="1.0" encoding="UTF-8" standalone="no"?>
<svg
   width="800"
   height="400"
   version="1.1"
   id="svg14"
   sodipodi:docname="Icon.svg"
   inkscape:version="1.2.2 (732a01da63, 2022-12-09)"
   xmlns:inkscape="http://www.inkscape.org/namespaces/inkscape"
   xmlns:sodipodi="http://sodipodi.sourceforge.net/DTD/sodipodi-0.dtd"
   xmlns="http://www.w3.org/2000/svg"
   xmlns:svg="http://www.w3.org/2000/svg">
  <sodipodi:namedview
     id="namedview16"
     pagecolor="#505050"
     bordercolor="#eeeeee"
     borderopacity="1"
     inkscape:showpageshadow="0"
     inkscape:pageopacity="0"
     inkscape:pagecheckerboard="0"
     inkscape:deskcolor="#505050"
     showgrid="false"
     inkscape:zoom="0.59"
     inkscape:cx="92.372881"
     inkscape:cy="200"
     inkscape:window-width="1920"
     inkscape:window-height="1027"
     inkscape:window-x="-8"
     inkscape:window-y="-8"
     inkscape:window-maximized="1"
     inkscape:current-layer="svg14" />
  <title
     id="title2">LocalSubsIcon</title>
  <defs
     id="defs7">
    <filter
       height="1.292851"
       width="1.1018727"
       y="-0.1464255"
       x="-0.050936341"
       id="svg_2_blur">
      <feGaussianBlur
         stdDeviation="4"
         in="SourceGraphic"
         id="feGaussianBlur4" />
    </filter>
  </defs>
  <g
     id="Layer_1"
     inkscape:label="Icon"
     style="fill:#7f7f7f;fill-opacity:1">
    <title
       id="title9">Layer 1</title>
    <g
       aria-label="./sub"
       id="svg_2"
       style="font-size:120px;font-family:Commissioner;display:inline;fill:#7f7f7f;fill-opacity:1;stroke:#7f7f7f;stroke-width:8;filter:url(#svg_2_blur)"
       inkscape:label="BlueTextShadow">
      <path
         d="m 274.47984,242.27002 q 0,-4.44 2.16,-6.24 2.16,-1.8 5.16,-1.8 3.12,0 5.28,1.8 2.28,1.8 2.28,6.24 0,4.32 -2.28,6.24 -2.16,1.92 -5.28,1.92 -3,0 -5.16,-1.92 -2.16,-1.92 -2.16,-6.24 z"
         id="path853"
         style="fill:#7f7f7f;fill-opacity:1" />
      <path
         d="m 341.4398,163.07002 -31.92,85.68 h -10.32 l 31.92,-85.68 z"
         id="path855"
         style="fill:#7f7f7f;fill-opacity:1" />
      <path
         d="m 394.71977,230.99002 q 0,9.36 -6.96,14.16 -6.96,4.8 -18.72,4.8 -6.72,0 -11.64,-1.08 -4.8,-1.08 -8.52,-3 v -9.6 q 3.84,1.92 9.24,3.6 5.52,1.56 11.16,1.56 8.04,0 11.64,-2.52 3.6,-2.64 3.6,-6.96 0,-2.4 -1.32,-4.32 -1.32,-1.92 -4.8,-3.84 -3.36,-1.92 -9.72,-4.32 -6.24,-2.4 -10.68,-4.8 -4.44,-2.4 -6.84,-5.76 -2.4,-3.36 -2.4,-8.64 0,-8.16 6.6,-12.6 6.72,-4.44 17.52,-4.44 5.88,0 10.92,1.2 5.16,1.08 9.6,3.12 l -3.6,8.4 q -4.08,-1.68 -8.52,-2.88 -4.44,-1.2 -9.12,-1.2 -6.48,0 -9.96,2.16 -3.36,2.04 -3.36,5.64 0,2.64 1.56,4.56 1.56,1.8 5.16,3.6 3.72,1.68 9.84,4.08 6.12,2.28 10.44,4.68 4.32,2.4 6.6,5.88 2.28,3.36 2.28,8.52 z"
         id="path857"
         style="fill:#7f7f7f;fill-opacity:1" />
      <path
         d="m 464.07978,184.43002 v 64.32 h -8.64 l -1.56,-8.52 h -0.48 q -3.12,5.04 -8.64,7.44 -5.52,2.28 -11.76,2.28 -11.64,0 -17.52,-5.52 -5.88,-5.64 -5.88,-17.88 v -42.12 h 10.68 v 41.4 q 0,15.36 14.28,15.36 10.68,0 14.76,-6 4.2,-6 4.2,-17.28 v -33.48 z"
         id="path859"
         style="fill:#7f7f7f;fill-opacity:1" />
      <path
         d="m 495.03979,179.75002 q 0,4.08 -0.24,7.68 -0.12,3.48 -0.36,5.52 h 0.6 q 2.76,-4.08 7.56,-6.84 4.8,-2.76 12.36,-2.76 12,0 19.2,8.4 7.32,8.28 7.32,24.84 0,16.56 -7.32,24.96 -7.32,8.4 -19.2,8.4 -7.56,0 -12.36,-2.76 -4.8,-2.76 -7.56,-6.6 h -0.84 l -2.16,8.16 h -7.56 v -91.2 h 10.56 z m 18.12,12.36 q -10.2,0 -14.16,5.88 -3.96,5.88 -3.96,18.24 v 0.48 q 0,11.88 3.84,18.24 3.96,6.24 14.52,6.24 8.64,0 12.84,-6.36 4.32,-6.36 4.32,-18.36 0,-24.36 -17.4,-24.36 z"
         id="path861"
         style="fill:#7f7f7f;fill-opacity:1" />
    </g>
    <g
       aria-label="./sub"
       id="svg_1"
       style="font-size:120px;font-family:Commissioner;fill:#007fff;stroke:#007fff;stroke-width:8;fill-opacity:1"
       inkscape:label="BlueText">
      <path
         d="m 274.47984,242.27002 q 0,-4.44 2.16,-6.24 2.16,-1.8 5.16,-1.8 3.12,0 5.28,1.8 2.28,1.8 2.28,6.24 0,4.32 -2.28,6.24 -2.16,1.92 -5.28,1.92 -3,0 -5.16,-1.92 -2.16,-1.92 -2.16,-6.24 z"
         id="path864"
         style="fill:#007fff;fill-opacity:1" />
      <path
         d="m 341.4398,163.07002 -31.92,85.68 h -10.32 l 31.92,-85.68 z"
         id="path866"
         style="fill:#007fff;fill-opacity:1" />
      <path
         d="m 394.71977,230.99002 q 0,9.36 -6.96,14.16 -6.96,4.8 -18.72,4.8 -6.72,0 -11.64,-1.08 -4.8,-1.08 -8.52,-3 v -9.6 q 3.84,1.92 9.24,3.6 5.52,1.56 11.16,1.56 8.04,0 11.64,-2.52 3.6,-2.64 3.6,-6.96 0,-2.4 -1.32,-4.32 -1.32,-1.92 -4.8,-3.84 -3.36,-1.92 -9.72,-4.32 -6.24,-2.4 -10.68,-4.8 -4.44,-2.4 -6.84,-5.76 -2.4,-3.36 -2.4,-8.64 0,-8.16 6.6,-12.6 6.72,-4.44 17.52,-4.44 5.88,0 10.92,1.2 5.16,1.08 9.6,3.12 l -3.6,8.4 q -4.08,-1.68 -8.52,-2.88 -4.44,-1.2 -9.12,-1.2 -6.48,0 -9.96,2.16 -3.36,2.04 -3.36,5.64 0,2.64 1.56,4.56 1.56,1.8 5.16,3.6 3.72,1.68 9.84,4.08 6.12,2.28 10.44,4.68 4.32,2.4 6.6,5.88 2.28,3.36 2.28,8.52 z"
         id="path868"
         style="fill:#007fff;fill-opacity:1" />
      <path
         d="m 464.07978,184.43002 v 64.32 h -8.64 l -1.56,-8.52 h -0.48 q -3.12,5.04 -8.64,7.44 -5.52,2.28 -11.76,2.28 -11.64,0 -17.52,-5.52 -5.88,-5.64 -5.88,-17.88 v -42.12 h 10.68 v 41.4 q 0,15.36 14.28,15.36 10.68,0 14.76,-6 4.2,-6 4.2,-17.28 v -33.48 z"
         id="path870"
         style="fill:#007fff;fill-opacity:1" />
      <path
         d="m 495.03979,179.75002 q 0,4.08 -0.24,7.68 -0.12,3.48 -0.36,5.52 h 0.6 q 2.76,-4.08 7.56,-6.84 4.8,-2.76 12.36,-2.76 12,0 19.2,8.4 7.32,8.28 7.32,24.84 0,16.56 -7.32,24.96 -7.32,8.4 -19.2,8.4 -7.56,0 -12.36,-2.76 -4.8,-2.76 -7.56,-6.6 h -0.84 l -2.16,8.16 h -7.56 v -91.2 h 10.56 z m 18.12,12.36 q -10.2,0 -14.16,5.88 -3.96,5.88 -3.96,18.24 v 0.48 q 0,11.88 3.84,18.24 3.96,6.24 14.52,6.24 8.64,0 12.84,-6.36 4.32,-6.36 4.32,-18.36 0,-24.36 -17.4,-24.36 z"
         id="path872"
         style="fill:#007fff;fill-opacity:1" />
    </g>
  </g>
</svg>
